<svg width="20" height="20" viewBox="0 0 20 20" fill="none" xmlns="http://www.w3.org/2000/svg">
<path d="M0 5.4241C0 6.30804 0.944194 6.52902 1.50669 5.95647L5.95647 1.50669C6.53907 0.934149 6.30804 0 5.4241 0H0.914066C0.351562 0 0 0.381696 0 0.924103V5.4241ZM2.59152 3.85714L15.3181 16.5938L16.5938 15.3381L3.86719 2.59152L2.59152 3.85714ZM19.1953 13.7712C19.1953 12.8772 18.2511 12.6663 17.6786 13.2288L13.2288 17.6786C12.6562 18.2612 12.8873 19.1953 13.7712 19.1953H18.2812C18.8438 19.1953 19.1953 18.8036 19.1953 18.2712V13.7712ZM19.1953 5.4241V0.924103C19.1953 0.381696 18.8438 0 18.2812 0H13.7712C12.8873 0 12.6562 0.934149 13.2288 1.50669L17.6786 5.95647C18.2511 6.52902 19.1953 6.30804 19.1953 5.4241ZM3.86719 16.5938L16.6038 3.85714L15.3281 2.59152L2.59152 15.3281L3.86719 16.5938ZM0 13.7712V18.2712C0 18.8036 0.351562 19.1953 0.914066 19.1953H5.4241C6.30804 19.1953 6.53907 18.2612 5.95647 17.6786L1.50669 13.2288C0.944194 12.6663 0 12.8772 0 13.7712Z" fill="#9EFF00"/>
</svg>
