<svg width="22" height="20" viewBox="0 0 22 20" fill="none" xmlns="http://www.w3.org/2000/svg">
<g clip-path="url(#clip0_92_53425)">
<path d="M2.56138 15.3482L3.375 16.7343L10.5369 13.1384L17.6986 16.7343L18.5123 15.3482L11.3505 11.7522V3.27455H9.73328V11.7522L2.56138 15.3482ZM0.0200893 16.7846C0.0200893 17.1964 0.190848 17.4978 0.552455 17.6986L2.56138 18.8739C2.82255 19.0346 3.00335 19.0647 3.35491 18.8638L5.31362 17.7288C5.67522 17.5279 5.74553 17.3571 5.73549 17.0257L5.74553 14.6953C5.74553 14.2935 5.56473 14.0022 5.22321 13.8014L3.20424 12.6261C2.94308 12.4855 2.7221 12.4353 2.38058 12.6261L0.391741 13.7812C0.0502233 13.9721 0 14.173 0 14.4543L0.0200893 16.7846ZM15.2779 17.0357C15.2679 17.3672 15.3381 17.5379 15.6998 17.7388L17.6585 18.8739C18.01 19.0748 18.1909 19.0447 18.452 18.8839L20.4609 17.7087C20.8226 17.5078 20.9933 17.2065 20.9933 16.7947L21.0134 14.4643C21.0134 14.1831 20.9631 13.9821 20.6217 13.7913L18.6328 12.6362C18.2913 12.4453 18.0703 12.4955 17.8091 12.6362L15.7902 13.8114C15.4486 14.0123 15.2679 14.3036 15.2679 14.7053L15.2779 17.0357ZM7.97545 4.99219L10.0045 6.15736C10.346 6.34821 10.6774 6.34821 11.019 6.15736L13.048 4.99219C13.3293 4.83147 13.4498 4.68081 13.4498 4.26897V1.99888C13.4498 1.5971 13.3293 1.45647 13.0681 1.30581L11.0391 0.15067C10.6774 -0.0502232 10.3359 -0.0502232 9.98434 0.15067L7.95536 1.30581C7.70424 1.44643 7.56362 1.5971 7.56362 1.99888V4.26897C7.56362 4.68081 7.71429 4.84152 7.97545 4.99219Z" fill="#9EFF00"/>
</g>
<defs>
<clipPath id="clip0_92_53425">
<rect width="21.0134" height="19.0547" fill="white"/>
</clipPath>
</defs>
</svg>
