<svg width="24" height="19" viewBox="0 0 24 19" fill="none" xmlns="http://www.w3.org/2000/svg">
<g clip-path="url(#clip0_92_53546)">
<path d="M3.59673 9.02977C3.81573 9.00447 4.04316 8.98765 4.26216 8.98765C4.49801 8.98765 4.72544 9.00447 4.95287 9.03818V7.2019H3.59673V9.02977ZM3.59673 6.04794H4.95287V4.28748C4.95287 3.41146 5.41615 2.96503 6.25847 2.96503H8.00208V1.60889H6.24162C4.48117 1.60889 3.59673 2.47648 3.59673 4.22009V6.04794ZM9.15608 2.96503H12.9549V1.60889H9.15608V2.96503ZM14.1005 2.96503H17.8994V1.60889H14.1005V2.96503ZM23.4587 6.04794V4.22009C23.4587 2.47648 22.5743 1.60889 20.8138 1.60889H19.0534V2.96503H20.797C21.6393 2.96503 22.1026 3.41146 22.1026 4.28748V6.04794H23.4587ZM23.4587 11.523V7.2019H22.1026V11.523H23.4587ZM20.8138 17.1161C22.5743 17.1161 23.4587 16.2485 23.4587 14.5049V12.677H22.1026V14.4375C22.1026 15.3135 21.6393 15.76 20.797 15.76H19.0534V17.1161H20.8138ZM14.1005 17.1161H17.8994V15.76H14.1005V17.1161ZM8.9876 17.1077L12.9549 17.1161V15.76H9.51828C9.40874 16.2401 9.23191 16.6865 8.9876 17.1077ZM4.27901 18.708C6.62067 18.708 8.55798 16.7707 8.55798 14.4291C8.55798 12.0958 6.61225 10.1501 4.27059 10.1501C1.93735 10.1501 0 12.0958 0 14.4291C0 16.7707 1.94577 18.708 4.27901 18.708ZM4.27901 17.6973C2.46801 17.6973 1.01921 16.2401 1.01921 14.4291C1.01921 12.6265 2.46801 11.1608 4.27059 11.1608C6.08159 11.1608 7.53882 12.6265 7.54723 14.4291C7.55564 16.2401 6.08159 17.6973 4.27901 17.6973ZM4.27059 16.9645C5.66885 16.9645 6.80598 15.8189 6.80598 14.4375C6.80598 13.0476 5.66042 11.9021 4.27059 11.9021C2.88075 11.9021 1.74361 13.0476 1.74361 14.4375C1.74361 15.8189 2.88917 16.9645 4.27059 16.9645Z" fill="#9EFF00"/>
</g>
<defs>
<clipPath id="clip0_92_53546">
<rect width="23.4587" height="18.708" fill="white"/>
</clipPath>
</defs>
</svg>
