<svg width="24" height="20" viewBox="0 0 24 20" fill="none" xmlns="http://www.w3.org/2000/svg">
<path d="M2.43198 16.352H21.2255C22.8436 16.352 23.6575 15.5855 23.6575 13.9201V3.07547C23.6575 1.41945 22.8436 0.652954 21.2255 0.652954H2.43198C0.813814 0.652954 0 1.41945 0 3.07547V13.9201C0 15.5855 0.813814 16.352 2.43198 16.352ZM7.06884 19.56H16.5886C17.005 19.56 17.3551 19.2193 17.3551 18.7934C17.3551 18.3676 17.005 18.027 16.5886 18.027H7.06884C6.65247 18.027 6.30234 18.3676 6.30234 18.7934C6.30234 19.2193 6.65247 19.56 7.06884 19.56ZM12.3208 12.4249C12.1126 12.4249 11.9801 12.3019 11.9517 12.1032C11.5354 9.25477 11.1663 8.62079 8.17601 8.31798C7.97729 8.28955 7.85426 8.14759 7.85426 7.95837C7.85426 7.77857 7.97729 7.62716 8.17601 7.59878C11.1568 7.20133 11.4123 6.68087 11.9517 3.80413C11.9991 3.61486 12.1315 3.49185 12.3208 3.49185C12.5006 3.49185 12.6425 3.62433 12.6709 3.81359C13.0968 6.63355 13.4847 7.20133 16.4561 7.59878C16.6454 7.62716 16.7778 7.77857 16.7778 7.95837C16.7778 8.14759 16.6454 8.28955 16.4561 8.31798C13.4753 8.71543 13.2103 9.25477 12.6709 12.1126C12.633 12.3019 12.5006 12.4249 12.3208 12.4249ZM8.47882 14.0241C8.32742 14.0241 8.25175 13.9201 8.20443 13.7687C7.92051 12.3776 8.04353 12.3113 6.51053 12.0842C6.34965 12.0558 6.26449 11.9612 6.26449 11.8098C6.26449 11.6773 6.34965 11.5638 6.4916 11.5449C8.04353 11.2894 7.92051 11.2231 8.20443 9.8415C8.25175 9.69009 8.33686 9.58601 8.47882 9.58601C8.62078 9.58601 8.71542 9.69954 8.75321 9.8415C9.01824 11.2231 8.9236 11.2894 10.4755 11.5449C10.608 11.5638 10.7026 11.6773 10.7026 11.8098C10.7026 11.9423 10.608 12.0558 10.4755 12.0842C8.9236 12.3113 9.01824 12.3776 8.75321 13.797C8.71542 13.9295 8.61133 14.0241 8.47882 14.0241Z" fill="#9EFF00"/>
</svg>
