<svg width="24" height="28" viewBox="0 0 24 28" fill="none" xmlns="http://www.w3.org/2000/svg">
<path d="M11.5224 27.3254C15.7859 27.3254 19.2258 23.8855 19.2258 19.6341C19.2258 15.3705 15.7859 11.9307 11.5224 11.9307C7.27096 11.9307 3.83106 15.3705 3.83106 19.6341C3.83106 23.8855 7.27096 27.3254 11.5224 27.3254ZM9.33005 23.5948C8.86978 23.9339 8.38529 23.5827 8.56697 23.0498L9.43906 20.4456L7.21039 18.8589C6.78647 18.544 6.9197 17.9505 7.50109 17.9505L10.2385 17.9747L11.0742 15.3585C11.2438 14.8255 11.8251 14.8255 11.9948 15.3585L12.8305 17.9747L15.5679 17.9505C16.1493 17.9505 16.2704 18.5561 15.8586 18.8468L13.6299 20.4456L14.502 23.0498C14.6837 23.5827 14.1992 23.9339 13.7389 23.5948L11.5345 21.9838L9.33005 23.5948ZM4.14598 13.8686C5.33299 12.3666 6.96815 11.2281 8.84556 10.6709L3.35868 0.811526L0.173135 5.66857C-0.0448868 5.98349 -0.0569992 6.33475 0.136798 6.64966L4.14598 13.8686ZM8.80923 6.54065H14.2477L17.9419 0H5.11496L8.80923 6.54065ZM14.2113 10.6709C16.1009 11.2281 17.7239 12.3666 18.9109 13.8686L22.9322 6.64966C23.1139 6.33475 23.1018 5.98349 22.8838 5.66857L19.6982 0.811526L14.2113 10.6709Z" fill="#9EFF00"/>
</svg>
