<svg width="17" height="24" viewBox="0 0 17 24" fill="none" xmlns="http://www.w3.org/2000/svg">
<path d="M9.23787 23.2819C13.2034 23.2819 15.433 20.7966 15.433 16.5477V14.7934C15.433 13.1852 14.6654 12.2074 13.7882 12.2074C13.5872 12.2074 13.4867 12.3171 13.4867 12.4998V13.2765C13.4867 13.6512 13.2948 13.8248 13.0755 13.8248C12.8379 13.8248 12.6552 13.6512 12.6552 13.2765V12.7649C12.6552 11.8237 12.043 11.2024 11.2297 11.2024C10.8552 11.2024 10.6906 11.3577 10.6906 11.6683V12.7283C10.6906 13.1029 10.508 13.2765 10.2886 13.2765C10.051 13.2765 9.85915 13.1029 9.85915 12.7283V11.7506C9.85915 10.6906 9.247 10.1881 8.452 10.1881C8.10479 10.1881 7.9129 10.3526 7.9129 10.6542V12.7283C7.9129 13.1029 7.73018 13.2765 7.51088 13.2765C7.27331 13.2765 7.08143 13.1029 7.08143 12.7283V5.79307C7.08143 5.11691 6.64284 4.67831 6.06719 4.67831C5.45498 4.67831 5.03467 5.11691 5.03467 5.79307V15.9446C5.03467 16.2005 4.87019 16.3284 4.71487 16.3284C4.55953 16.3284 4.4316 16.237 4.32196 15.9903L2.97877 12.8106C2.77775 12.3445 2.47622 12.1435 2.06504 12.1435C1.43456 12.1435 1.03252 12.573 1.03252 13.0938C1.03252 13.2948 1.0782 13.4684 1.12389 13.6146L2.60414 18.028C3.86509 21.756 6.32304 23.2819 9.23787 23.2819ZM1.40715 7.01747C2.22037 7.01747 2.84171 6.37786 2.84171 5.58291C2.84171 4.7971 2.22037 4.15749 1.40715 4.15749C0.630476 4.15749 0 4.7971 0 5.58291C0 6.37786 0.630476 7.01747 1.40715 7.01747ZM6.06719 2.85999C6.86213 2.85999 7.50174 2.22037 7.50174 1.42542C7.50174 0.64875 6.86213 0 6.06719 0C5.29052 0 4.64176 0.64875 4.64176 1.42542C4.64176 2.22037 5.29052 2.85999 6.06719 2.85999ZM10.7729 7.01747C11.5678 7.01747 12.2074 6.37786 12.2074 5.58291C12.2074 4.7971 11.5678 4.15749 10.7729 4.15749C9.98711 4.15749 9.3475 4.7971 9.3475 5.58291C9.3475 6.37786 9.98711 7.01747 10.7729 7.01747ZM14.9761 7.01747C15.7711 7.01747 16.4107 6.37786 16.4107 5.58291C16.4107 4.7971 15.7711 4.15749 14.9761 4.15749C14.1994 4.15749 13.5598 4.7971 13.5598 5.58291C13.5598 6.37786 14.1994 7.01747 14.9761 7.01747ZM14.9761 2.85999C15.7711 2.85999 16.4107 2.22037 16.4107 1.42542C16.4107 0.64875 15.7711 0 14.9761 0C14.1994 0 13.5598 0.64875 13.5598 1.42542C13.5598 2.22037 14.1994 2.85999 14.9761 2.85999Z" fill="#9EFF00"/>
</svg>
