<svg width="22" height="19" viewBox="0 0 22 19" fill="none" xmlns="http://www.w3.org/2000/svg">
<path d="M0 17.8996C0 18.3818 0.321429 18.6932 0.803571 18.6932H20.7824C21.2243 18.6932 21.596 18.3416 21.596 17.8896C21.596 17.4476 21.2243 17.086 20.7824 17.086H1.89843C1.6875 17.086 1.61719 17.0157 1.61719 16.8048V0.924173C1.61719 0.492257 1.25558 0.120605 0.813616 0.120605C0.361607 0.120605 0 0.492257 0 0.924173V17.8996ZM1.05469 11.6519L7.51339 7.91525L12.1641 11.903L20.4308 6.9811L19.798 5.95654L12.2445 10.4565L7.61384 6.48891L1.05469 10.2758V11.6519ZM7.38281 9.27127C8.36719 9.27127 9.17074 8.46771 9.17074 7.48333C9.17074 6.49895 8.36719 5.70543 7.38281 5.70543C6.39844 5.70543 5.59486 6.49895 5.59486 7.48333C5.59486 8.46771 6.39844 9.27127 7.38281 9.27127ZM12.1239 12.9577C13.1083 12.9577 13.9018 12.1541 13.9018 11.1697C13.9018 10.1853 13.1083 9.39178 12.1239 9.39178C11.1395 9.39178 10.3359 10.1853 10.3359 11.1697C10.3359 12.1541 11.1395 12.9577 12.1239 12.9577ZM19.6976 8.38735C20.6819 8.38735 21.4855 7.58378 21.4855 6.5994C21.4855 5.61502 20.6819 4.81145 19.6976 4.81145C18.7131 4.81145 17.9096 5.61502 17.9096 6.5994C17.9096 7.58378 18.7131 8.38735 19.6976 8.38735Z" fill="#9EFF00"/>
</svg>
