<svg width="20" height="21" viewBox="0 0 20 21" fill="none" xmlns="http://www.w3.org/2000/svg">
<path d="M10.6304 2.1108C11.0883 2.1108 11.4366 1.76242 11.4366 1.30456C11.4366 0.856652 11.0883 0.508272 10.6304 0.508272H3.34441L4.92703 2.1108H10.6304ZM13.4274 4.95753C13.8753 4.95753 14.2336 4.5992 14.2336 4.14133C14.2336 3.69342 13.8753 3.355 13.4274 3.355H6.12146L7.70408 4.95753H13.4274ZM16.1646 7.7943C16.6125 7.7943 16.961 7.43597 16.961 6.97811C16.961 6.53019 16.6125 6.19178 16.1646 6.19178H8.89854L10.4811 7.7943H16.1646ZM18.9318 9.02858H11.6756C12.2728 9.63571 12.5415 10.004 12.5813 10.6311H18.9318C19.3796 10.6311 19.738 10.2827 19.738 9.82487C19.738 9.37691 19.3796 9.02858 18.9318 9.02858ZM9.72464 18.8627L6.15132 10.5117L5.67355 11.3278L10.6304 11.6065C11.2973 11.6463 11.6159 10.9296 11.1381 10.4419L1.28401 0.368922C0.846055 -0.0789895 0.169211 0.169851 0.169211 0.796927L0 14.8116C0 15.4983 0.766427 15.7771 1.20439 15.2694L4.40944 11.7259L3.48375 11.4871L6.93765 20.0273C7.077 20.3657 7.42538 20.5249 7.73394 20.3856L9.44596 19.6789C9.76448 19.5594 9.87396 19.1912 9.72464 18.8627Z" fill="#9EFF00"/>
</svg>
