<svg width="15" height="22" viewBox="0 0 15 22" fill="none" xmlns="http://www.w3.org/2000/svg">
<g clip-path="url(#clip0_92_53386)">
<path d="M0.911564 21.372C1.44332 21.372 1.70354 21.0892 1.79405 20.6253L4.03421 9.22085L2.90282 10.1373H11.343L10.2116 9.22085L12.4518 20.6253C12.5423 21.0892 12.8025 21.372 13.3343 21.372C14.0923 21.372 14.3526 20.8516 14.228 20.2406L12.1123 9.46976C11.9766 8.75698 11.3769 8.23654 10.6868 8.23654H3.57034C2.88019 8.23654 2.28055 8.75698 2.14478 9.46976L0.0290772 20.2406C-0.0953761 20.8516 0.176158 21.372 0.911564 21.372ZM3.32143 9.15297H10.9357L8.11854 0.74672C7.94883 0.271534 7.63204 0 7.14554 0C6.63642 0 6.28569 0.271534 6.12728 0.74672L3.32143 9.15297Z" fill="#9EFF00"/>
</g>
<defs>
<clipPath id="clip0_92_53386">
<rect width="14.2578" height="21.372" fill="white"/>
</clipPath>
</defs>
</svg>
