<svg width="17" height="23" viewBox="0 0 17 23" fill="none" xmlns="http://www.w3.org/2000/svg">
<path d="M4.87637 18.5086H13.5299C15.2068 18.5086 16.0453 17.662 16.0453 15.9524V6.07784C16.0453 4.37645 15.2068 3.52168 13.5299 3.52168H5.73928L7.07436 4.83233H13.4566C14.3032 4.83233 14.7347 5.28006 14.7347 6.09413V15.9361C14.7347 16.7502 14.3032 17.1979 13.4647 17.1979H4.9415C4.10301 17.1979 3.66342 16.7502 3.66342 15.9361V10.1237H2.35278V15.9524C2.35278 17.662 3.1994 18.5086 4.87637 18.5086ZM6.11375 8.32468H12.1053C12.3902 8.32468 12.61 8.10489 12.61 7.81993C12.61 7.54318 12.3902 7.32339 12.1053 7.32339H6.11375C5.81255 7.32339 5.60089 7.54318 5.60089 7.81993C5.60089 8.10489 5.81255 8.32468 6.11375 8.32468ZM6.11375 11.5158H12.1053C12.3902 11.5158 12.61 11.2879 12.61 11.0029C12.61 10.7261 12.3902 10.5145 12.1053 10.5145H6.11375C5.81255 10.5145 5.60089 10.7261 5.60089 11.0029C5.60089 11.2879 5.81255 11.5158 6.11375 11.5158ZM6.11375 14.6987H12.1053C12.3902 14.6987 12.61 14.4871 12.61 14.2103C12.61 13.9254 12.3902 13.6974 12.1053 13.6974H6.11375C5.81255 13.6974 5.60089 13.9254 5.60089 14.2103C5.60089 14.4871 5.81255 14.6987 6.11375 14.6987ZM0.000130578 6.81864C-0.00801007 7.12798 0.366459 7.23384 0.569975 7.03031L1.81549 5.78478L3.20754 9.22011C3.27267 9.37481 3.43548 9.4481 3.58201 9.39106L4.39607 9.06547C4.53446 9.00031 4.59145 8.82936 4.51818 8.67472L3.06101 5.29634L4.81125 5.22308C5.12059 5.20679 5.27526 4.91373 5.05546 4.67766L0.602537 0.102622C0.399022 -0.100894 0.0815366 0.0130745 0.0733965 0.314278L0.000130578 6.81864Z" fill="#9EFF00"/>
</svg>
