<svg width="23" height="17" viewBox="0 0 23 17" fill="none" xmlns="http://www.w3.org/2000/svg">
<path d="M0 11.6725C0 11.8541 0.0908044 12.0687 0.231139 12.2091L3.87157 15.9403C4.02842 16.1054 4.21828 16.188 4.42466 16.188C4.62278 16.188 4.81264 16.1054 4.96949 15.9403L8.6182 12.2091C8.75852 12.0687 8.84108 11.8541 8.84108 11.6725C8.84108 11.235 8.54388 10.9461 8.1146 10.9461C7.89997 10.9461 7.73492 11.0121 7.61108 11.1442L6.41411 12.4072L5.0768 13.9426L5.15935 12.0357V4.15224L5.0768 2.24535L6.41411 3.78077L7.61108 5.04378C7.73492 5.17586 7.89997 5.2419 8.1146 5.2419C8.54388 5.2419 8.84108 4.95298 8.84108 4.51547C8.84108 4.33385 8.75852 4.11923 8.6182 3.97889L4.96949 0.247648C4.81264 0.08255 4.62278 0 4.42466 0C4.21828 0 4.02842 0.08255 3.87157 0.247648L0.231139 3.97889C0.0908044 4.11923 0 4.33385 0 4.51547C0 4.95298 0.297179 5.2419 0.726437 5.2419C0.941067 5.2419 1.11442 5.16761 1.22999 5.04378L2.43521 3.78077L3.76426 2.24535L3.68171 4.15224V12.0357L3.76426 13.9426L2.43521 12.4072L1.22999 11.1442C1.11442 11.0204 0.941067 10.9461 0.726437 10.9461C0.297179 10.9461 0 11.235 0 11.6725ZM10.4508 5.91055C10.4508 6.14995 10.6324 6.33981 10.8883 6.37283C14.7764 6.81034 15.346 7.35517 15.866 11.3671C15.9073 11.6147 16.0972 11.7799 16.3201 11.7799C16.5512 11.7799 16.741 11.6147 16.7823 11.3671C17.3024 7.35517 17.8638 6.81034 21.7518 6.37283C22.016 6.33981 22.1893 6.14995 22.1893 5.91055C22.1893 5.67116 22.016 5.48129 21.7518 5.44828C17.872 5.01076 17.3024 4.45768 16.7823 0.454023C16.741 0.214629 16.5594 0.0495298 16.3201 0.0495298C16.0889 0.0495298 15.9073 0.214629 15.866 0.454023C15.313 4.43291 14.7846 4.92821 10.8883 5.44828C10.6324 5.48129 10.4508 5.67116 10.4508 5.91055ZM9.66659 13.1007C9.66659 13.2657 9.78212 13.406 9.96372 13.4473C12.0687 13.8435 12.11 13.8188 12.3494 15.8C12.3824 15.9898 12.5145 16.1302 12.6961 16.1302C12.886 16.1302 13.0181 15.9981 13.0511 15.8082C13.3152 13.7363 13.406 13.7363 15.4202 13.4473C15.6102 13.4143 15.7339 13.274 15.7339 13.1007C15.7339 12.9355 15.6184 12.7869 15.4285 12.7539C13.3813 12.3577 13.3235 12.4072 13.0511 10.3847C13.0181 10.2031 12.8777 10.0711 12.6961 10.0711C12.5145 10.0711 12.3824 10.2114 12.3494 10.4012C12.11 12.3824 12.0605 12.4155 9.99675 12.7539C9.79036 12.7869 9.66659 12.919 9.66659 13.1007Z" fill="#9EFF00"/>
</svg>
