<svg width="22" height="21" viewBox="0 0 22 21" fill="none" xmlns="http://www.w3.org/2000/svg">
<g clip-path="url(#clip0_92_53633)">
<path d="M7.62388 19.9688C7.80469 19.9688 7.93527 19.8381 7.9654 19.6473C8.28683 16.9654 8.41741 16.8951 11.1495 16.4531C11.3605 16.4129 11.491 16.3125 11.491 16.1116C11.491 15.9207 11.3605 15.8002 11.1897 15.7701C8.4375 15.2478 8.28683 15.2578 7.9654 12.5759C7.93527 12.385 7.80469 12.2545 7.62388 12.2545C7.43304 12.2545 7.30245 12.385 7.28236 12.5659C6.93081 15.2879 6.8404 15.3783 4.05804 15.7701C3.88728 15.7902 3.75669 15.9207 3.75669 16.1116C3.75669 16.3024 3.88728 16.4129 4.05804 16.4531C6.8404 16.9855 6.92076 16.9855 7.28236 19.6674C7.30245 19.8381 7.43304 19.9688 7.62388 19.9688ZM2.85267 11.2198C2.99331 11.2198 3.07366 11.1195 3.10379 10.9888C3.44531 9.0804 3.45536 8.9598 5.47433 8.61831C5.60491 8.58814 5.70536 8.50781 5.70536 8.36719C5.70536 8.22657 5.60491 8.13616 5.47433 8.11607C3.45536 7.76451 3.44531 7.64397 3.10379 5.73549C3.07366 5.60491 2.99331 5.51451 2.85267 5.51451C2.71205 5.51451 2.63169 5.60491 2.60157 5.73549C2.26005 7.64397 2.25 7.76451 0.231027 8.11607C0.100447 8.13616 0 8.22657 0 8.36719C0 8.50781 0.100447 8.58814 0.231027 8.61831C2.25 8.9598 2.26005 9.0804 2.60157 10.9888C2.63169 11.1195 2.71205 11.2198 2.85267 11.2198ZM8.35714 4.79129C8.47767 4.79129 8.53795 4.72098 8.55804 4.61049C8.89954 3.00335 8.87949 2.94308 10.5669 2.60157C10.6774 2.58147 10.7578 2.51116 10.7578 2.40067C10.7578 2.28014 10.6774 2.20982 10.5669 2.18973C8.87949 1.84821 8.89954 1.78795 8.55804 0.190848C8.53795 0.0803571 8.47767 0 8.35714 0C8.23661 0 8.17634 0.0803571 8.15625 0.190848C7.81473 1.78795 7.83482 1.84821 6.14733 2.18973C6.03683 2.20982 5.95647 2.28014 5.95647 2.40067C5.95647 2.51116 6.03683 2.58147 6.14733 2.60157C7.83482 2.94308 7.81473 3.00335 8.15625 4.61049C8.17634 4.72098 8.23661 4.79129 8.35714 4.79129ZM16.654 8.33705C16.7947 8.33705 16.875 8.24665 16.9052 8.11607C17.2467 6.20759 17.2567 6.08705 19.2757 5.73549C19.4163 5.7154 19.5067 5.625 19.5067 5.48438C19.5067 5.34375 19.4163 5.26339 19.2757 5.23326C17.2567 4.89174 17.2467 4.77121 16.9052 2.86272C16.875 2.73214 16.7947 2.63169 16.654 2.63169C16.5134 2.63169 16.4331 2.73214 16.4029 2.86272C16.0614 4.77121 16.0514 4.89174 14.0324 5.23326C13.9018 5.26339 13.8014 5.34375 13.8014 5.48438C13.8014 5.625 13.9018 5.7154 14.0324 5.73549C16.0514 6.08705 16.0614 6.20759 16.4029 8.11607C16.4331 8.24665 16.5134 8.33705 16.654 8.33705ZM20.009 19.8081C20.4308 20.24 21.154 20.24 21.5558 19.8081C21.9676 19.3661 21.9676 18.6831 21.5558 18.2612L12.0033 8.67857C11.5815 8.25669 10.8583 8.25669 10.4565 8.67857C10.0346 9.12051 10.0447 9.8136 10.4565 10.2355L20.009 19.8081ZM14.1629 12.9074L11.2198 9.95426C11.0391 9.7734 10.9788 9.57257 11.1596 9.40183C11.3103 9.24103 11.5212 9.28123 11.7121 9.47211L14.6652 12.4252L14.1629 12.9074Z" fill="#9EFF00"/>
</g>
<defs>
<clipPath id="clip0_92_53633">
<rect width="21.8647" height="20.1797" fill="white"/>
</clipPath>
</defs>
</svg>
