<svg width="21" height="21" viewBox="0 0 21 21" fill="none" xmlns="http://www.w3.org/2000/svg">
<g clip-path="url(#clip0_92_53407)">
<path d="M1.71764 10.2455C1.71764 9.33146 1.85826 8.44755 2.11942 7.63393L0.54241 6.97098C0.200893 8.00558 0 9.10046 0 10.2455C0 11.3805 0.200893 12.4855 0.552455 13.5201L2.11942 12.8571C1.85826 12.0435 1.71764 11.1596 1.71764 10.2455ZM6.33817 2.63169L5.69531 1.08482C3.70647 2.07924 2.06919 3.71652 1.07478 5.70536L2.64174 6.35826C3.44531 4.76116 4.75112 3.45536 6.33817 2.63169ZM10.2355 1.70759C11.1495 1.70759 12.0335 1.84821 12.8672 2.11942L13.51 0.552455C12.4755 0.200893 11.3705 0 10.2355 0C9.10046 0 7.98549 0.200893 6.9509 0.552455L7.61384 2.11942C8.4375 1.84821 9.32143 1.70759 10.2355 1.70759ZM17.8493 6.34821L19.4062 5.70536C18.4018 3.71652 16.7645 2.07924 14.7757 1.07478L14.1328 2.63169C15.7198 3.44531 17.0357 4.75112 17.8493 6.34821ZM18.7835 10.2455C18.7835 11.1596 18.6429 12.0435 18.3817 12.8672L19.9386 13.5302C20.2902 12.4955 20.491 11.3805 20.491 10.2455C20.491 9.10046 20.2902 7.99553 19.9386 6.96093L18.3717 7.62388C18.6429 8.44755 18.7835 9.33146 18.7835 10.2455ZM14.1328 17.8493L14.7757 19.4163C16.7745 18.4119 18.4119 16.7745 19.3962 14.7857L17.8593 14.1429C17.0457 15.74 15.7299 17.0357 14.1328 17.8493ZM10.2455 18.7835C9.32143 18.7835 8.4375 18.6429 7.61384 18.3717L6.96093 19.9386C7.99553 20.2902 9.11049 20.491 10.2455 20.491C11.3805 20.491 12.4855 20.2902 13.51 19.9486L12.8571 18.3817C12.0335 18.6429 11.1596 18.7835 10.2455 18.7835ZM2.64174 14.1429L1.08482 14.7857C2.08929 16.7745 3.70647 18.4119 5.69531 19.4062L6.33817 17.8393C4.75112 17.0257 3.44531 15.7299 2.64174 14.1429ZM10.2255 17.2567C14.1328 17.2567 17.2467 14.1429 17.2366 10.2455C17.2266 6.34821 14.1127 3.23438 10.2154 3.23438C6.31808 3.23438 3.22433 6.33817 3.22433 10.2455C3.22433 14.1529 6.32812 17.2567 10.2255 17.2567Z" fill="#9EFF00"/>
</g>
<defs>
<clipPath id="clip0_92_53407">
<rect width="20.491" height="20.5011" fill="white"/>
</clipPath>
</defs>
</svg>
