<svg width="18" height="24" viewBox="0 0 18 24" fill="none" xmlns="http://www.w3.org/2000/svg">
<path d="M0 20.6919C0 21.4755 0.170759 21.9476 0.914066 22.3091C2.63169 23.0524 5.00223 23.5447 7.84486 23.5447C10.6574 23.5447 13.8214 23.1228 16.0915 22.0179C17.2969 21.4453 17.5881 20.9129 17.5881 19.6674V4.24888C17.5881 2.62165 16.865 1.87835 15.298 1.87835H14.3538V1.47657C14.3538 0.482143 13.8516 0 12.9676 0C12.6663 0 12.3047 0.0703125 11.8728 0.210938C8.83929 1.20536 6.06696 1.83817 2.51116 1.83817H1.70759C0.622768 1.83817 0 2.47098 0 3.45536V20.6919ZM3.56585 9.45197V6.05692C3.56585 5.91629 3.66629 5.79576 3.80692 5.78571C6.14733 5.69531 8.23661 5.28348 10.3761 4.5C10.4967 4.44978 10.7076 4.5 10.7076 4.74107V8.28683C10.7076 8.37723 10.6574 8.46764 10.5669 8.49777C8.69863 9.26117 6.23772 9.69309 3.80692 9.69309C3.67634 9.69309 3.56585 9.61269 3.56585 9.45197ZM4.07812 21.827C8.02567 21.7165 11.6919 20.6116 13.6808 19.0948C14.1429 18.7433 14.3538 18.3817 14.3538 17.4978V3.49553H15.3081C15.75 3.49553 15.971 3.73661 15.971 4.24888V19.5569C15.971 20.1596 15.8805 20.3805 15.3081 20.6317C13.3091 21.5055 10.4967 22.0681 7.84486 22.0681C6.57924 22.0681 5.38393 21.9978 4.07812 21.827Z" fill="#9EFF00"/>
</svg>
