<svg width="22" height="22" viewBox="0 0 22 22" fill="none" xmlns="http://www.w3.org/2000/svg">
<path d="M6.51897 15.2779C6.19755 14.9464 5.625 14.9464 5.28348 15.2779L3.21429 17.3371C2.88281 17.6685 2.88281 18.241 3.20424 18.5726C3.53571 18.904 4.10826 18.9141 4.44978 18.5826L6.51897 16.5134C6.86049 16.1819 6.86049 15.6195 6.51897 15.2779ZM4.7009 10.8984C4.7009 10.4264 4.2991 10.0245 3.81696 10.0245H0.873883C0.401786 10.0245 0 10.4264 0 10.8984C0 11.3705 0.401786 11.7723 0.873883 11.7723H3.81696C4.2991 11.7723 4.7009 11.3705 4.7009 10.8984ZM6.41853 6.42857C6.76005 6.0971 6.76005 5.5346 6.41853 5.19308L4.35938 3.12388C4.0279 2.79241 3.4654 2.78236 3.12388 3.11384C2.79241 3.44531 2.79241 4.00781 3.12388 4.34933L5.18304 6.42857C5.52455 6.77009 6.08705 6.77009 6.41853 6.42857ZM10.8984 4.68081C11.3805 4.68081 11.7824 4.27902 11.7824 3.80692V0.873883C11.7824 0.401786 11.3805 0 10.8984 0C10.4264 0 10.0245 0.401786 10.0245 0.873883V3.80692C10.0245 4.27902 10.4264 4.68081 10.8984 4.68081ZM15.2679 6.52902C15.6093 6.87053 16.1819 6.87053 16.5134 6.52902L18.5826 4.45982C18.9241 4.11831 18.9241 3.55581 18.5826 3.21429C18.2511 2.88281 17.6886 2.88281 17.3571 3.21429L15.2679 5.29353C14.9364 5.63505 14.9364 6.19755 15.2679 6.52902ZM17.1161 10.8984C17.1161 11.3705 17.5179 11.7723 17.99 11.7723H20.923C21.4052 11.7723 21.8069 11.3705 21.8069 10.8984C21.8069 10.4264 21.4052 10.0245 20.923 10.0245H17.99C17.5179 10.0245 17.1161 10.4264 17.1161 10.8984ZM10.1049 17.8795C10.0948 18.2712 10.5469 18.3917 10.8081 18.1407L12.3348 16.6038L14.0524 20.8527C14.1328 21.0335 14.3337 21.1339 14.5145 21.0536L15.519 20.6619C15.6998 20.5714 15.7701 20.3605 15.6797 20.1797L13.8717 16.0011L16.0413 15.9107C16.4129 15.8907 16.6038 15.529 16.3326 15.2377L10.8381 9.60266C10.5871 9.34149 10.2053 9.48214 10.1953 9.8538L10.1049 17.8795Z" fill="#9EFF00"/>
</svg>
