<svg width="17" height="23" viewBox="0 0 17 23" fill="none" xmlns="http://www.w3.org/2000/svg">
<path d="M2.78236 22.6305H14.0022C15.6696 22.6305 16.7846 21.5659 16.7846 19.9788V2.66183C16.7846 1.07478 15.6696 0 14.0022 0H2.78236C1.11495 0 0 1.07478 0 2.66183V19.9788C0 21.5659 1.11495 22.6305 2.78236 22.6305ZM2.98326 21.0134C2.11942 21.0134 1.61719 20.5312 1.61719 19.7076V2.93304C1.61719 2.10938 2.11942 1.61719 2.98326 1.61719H13.8014C14.6552 1.61719 15.1674 2.10938 15.1674 2.93304V19.7076C15.1674 20.5312 14.6552 21.0134 13.8014 21.0134H2.98326ZM4.54018 9.25114H12.2545C12.7869 9.25114 13.1484 8.89954 13.1484 8.33705V6.16741C13.1484 5.60491 12.7869 5.25335 12.2545 5.25335H4.54018C4.00781 5.25335 3.64621 5.60491 3.64621 6.16741V8.33705C3.64621 8.89954 4.00781 9.25114 4.54018 9.25114ZM4.54018 17.3571H12.2545C12.7869 17.3571 13.1484 16.9955 13.1484 16.4431V14.2634C13.1484 13.7109 12.7869 13.3493 12.2545 13.3493H4.54018C4.00781 13.3493 3.64621 13.7109 3.64621 14.2634V16.4431C3.64621 16.9955 4.00781 17.3571 4.54018 17.3571Z" fill="#9EFF00"/>
</svg>
