<svg width="22" height="18" viewBox="0 0 22 18" fill="none" xmlns="http://www.w3.org/2000/svg">
<path d="M13.7043 17.0659H19.6778C20.9918 17.0659 21.8705 16.2275 21.8705 14.9699V2.09596C21.8705 0.838381 20.9918 0 19.6778 0H13.7043C12.3903 0 11.5036 0.838381 11.5036 2.09596V14.9699C11.5036 16.2275 12.3903 17.0659 13.7043 17.0659ZM13.8655 15.768C13.1884 15.768 12.8015 15.4052 12.8015 14.7603V2.30555C12.8015 1.66064 13.1884 1.29788 13.8655 1.29788H19.5085C20.1857 1.29788 20.5726 1.66064 20.5726 2.30555V14.7603C20.5726 15.4052 20.1857 15.768 19.5085 15.768H13.8655ZM0.717462 15.1473C1.13665 15.1473 1.43492 14.8571 1.43492 14.4379V13.2125C1.43492 10.2138 3.26485 9.24637 5.61071 9.24637H6.14276L8.37576 9.1738V8.7224L6.18306 10.7216L5.29631 11.4794C5.1109 11.6326 5.06254 11.8341 5.06254 12.0276C5.06254 12.4226 5.36887 12.7208 5.76387 12.7208C5.95735 12.7208 6.12663 12.6483 6.30398 12.479L9.71394 9.07708C9.87519 8.92395 9.96386 8.73849 9.96386 8.53701C9.96386 8.33545 9.87519 8.15006 9.71394 7.99687L6.28786 4.57885C6.12663 4.41763 5.95735 4.35313 5.76387 4.35313C5.36887 4.35313 5.06254 4.64334 5.06254 5.04641C5.06254 5.23988 5.1109 5.44142 5.29631 5.59458L6.18306 6.35235L8.37576 8.35155V7.90015L6.14276 7.82757H5.61071C2.74892 7.82757 0 9.14161 0 13.2125V14.4379C0 14.8571 0.29827 15.1473 0.717462 15.1473Z" fill="#9EFF00"/>
</svg>
