<svg width="24" height="16" viewBox="0 0 24 16" fill="none" xmlns="http://www.w3.org/2000/svg">
<path d="M0 7.87475C0 9.5429 1.17753 10.4588 2.50225 10.4588C3.0583 10.4588 3.47535 10.3034 3.97416 9.99263C4.44026 9.70647 4.77553 9.87812 4.77553 10.2789V13.3044C4.77553 14.9154 5.62597 15.7413 7.25323 15.7413H9.43656C9.82907 15.7413 10.0008 15.4141 9.72279 14.9481C9.4039 14.4492 9.2485 14.0322 9.2485 13.4762C9.2485 12.1515 10.1725 10.9739 11.8407 10.9739C13.5089 10.9739 14.4247 12.1515 14.4247 13.4762C14.4247 14.0322 14.2693 14.4492 13.9586 14.9481C13.6806 15.4141 13.8441 15.7413 14.2449 15.7413H16.4282C18.0554 15.7413 18.9059 14.9154 18.9059 13.3044V10.2789C18.9059 9.87812 19.2411 9.70647 19.6991 9.99263C20.206 10.3034 20.6231 10.4588 21.171 10.4588C22.5039 10.4588 23.6814 9.5429 23.6814 7.87475C23.6814 6.19838 22.5039 5.28252 21.171 5.28252C20.6231 5.28252 20.206 5.43789 19.6991 5.74863C19.2411 6.03484 18.9059 5.86311 18.9059 5.46242V2.43683C18.9059 0.834081 18.0554 0 16.4282 0H14.2449C13.8441 0 13.6806 0.335269 13.9586 0.801376C14.2693 1.30019 14.4247 1.71723 14.4247 2.27328C14.4247 3.598 13.5089 4.77553 11.8407 4.77553C10.1725 4.77553 9.2485 3.598 9.2485 2.27328C9.2485 1.71723 9.4039 1.30019 9.72279 0.801376C10.0008 0.335269 9.82907 0 9.43656 0H7.25323C5.62597 0 4.77553 0.834081 4.77553 2.43683V5.46242C4.77553 5.86311 4.44026 6.03484 3.97416 5.74863C3.47535 5.43789 3.0583 5.28252 2.50225 5.28252C1.17753 5.28252 0 6.19838 0 7.87475Z" fill="#9EFF00"/>
</svg>
