<svg width="17" height="21" viewBox="0 0 17 21" fill="none" xmlns="http://www.w3.org/2000/svg">
<path d="M16.6942 12.3952V4.71104C16.6942 3.65635 16.2422 3.31484 15.3884 2.96327C14.2031 2.48113 10.3761 1.02466 9.19089 0.68314C8.9196 0.612828 8.62834 0.532471 8.3471 0.532471C8.06585 0.532471 7.77455 0.592738 7.51339 0.68314C6.31808 1.09497 2.49107 2.47108 1.30581 2.96327C0.462053 3.32488 0 3.65635 0 4.71104V12.3952C0 16.0615 1.95871 17.4175 7.6741 20.6218C7.93527 20.7624 8.18638 20.8227 8.3471 20.8227C8.50781 20.8227 8.769 20.7624 9.02006 20.6218C14.7255 17.4075 16.6942 16.0615 16.6942 12.3952ZM8.13616 18.9644C8.01562 18.9342 7.88505 18.8639 7.72433 18.7635C3.09375 15.941 1.5971 15.1273 1.5971 12.0235V5.02243C1.5971 4.68091 1.65736 4.54029 1.93862 4.43984C3.49553 3.90747 6.42857 2.84274 7.94531 2.24006C8.02567 2.20992 8.08593 2.18984 8.13616 2.17979V18.9644Z" fill="#9EFF00"/>
</svg>
