<svg width="21" height="26" viewBox="0 0 21 26" fill="none" xmlns="http://www.w3.org/2000/svg">
<path d="M10.228 25.245C10.4281 25.245 10.7407 25.1698 11.0533 25.0073C18.1678 21.2812 20.4561 19.4182 20.4561 14.9294V5.50158C20.4561 4.2137 19.9058 3.80108 18.8556 3.36345C17.3927 2.76327 12.7163 1.06277 11.2658 0.562625C10.9282 0.450092 10.5781 0.387573 10.228 0.387573C9.87791 0.387573 9.52782 0.462596 9.20272 0.562625C7.73979 1.03777 3.0634 2.77578 1.60047 3.36345C0.562666 3.78858 0 4.2137 0 5.50158V14.9294C0 19.4182 2.41321 21.0687 9.40278 25.0073C9.72787 25.1824 10.028 25.245 10.228 25.245ZM4.58885 13.2288C4.58885 13.0788 4.66387 12.8912 4.80142 12.7287L11.866 3.8636C12.4037 3.1884 13.304 3.63854 12.9789 4.47628L10.6532 10.7281H15.0169C15.3545 10.7281 15.6046 10.9656 15.6046 11.3033C15.6046 11.4534 15.5296 11.6409 15.3921 11.8034L8.32746 20.6686C7.7898 21.3438 6.90204 20.8936 7.21463 20.0684L9.55282 13.804H5.17653C4.85144 13.804 4.58885 13.5664 4.58885 13.2288Z" fill="#9EFF00"/>
</svg>
