<svg width="72" height="13" viewBox="0 0 72 13" fill="none" xmlns="http://www.w3.org/2000/svg">
<path d="M4.02629 0C6.04686 0 7.57714 1.09943 7.96343 2.86743L5.94286 3.28343C5.79429 2.34743 4.97714 1.73829 3.98171 1.73829C2.97143 1.73829 2.36229 2.30286 2.36229 2.97143C2.36229 3.47657 2.58514 3.83314 3.35771 3.98171L5.49714 4.41257C7.11657 4.75429 8.112 5.72 8.112 7.26514C8.112 9.19657 6.52229 10.4 4.16 10.4C2.08 10.4 0.252571 9.43429 0 7.44343L2.12457 7.01257C2.392 8.14172 3.224 8.632 4.35314 8.632C5.512 8.632 6.12114 8.08229 6.12114 7.36914C6.12114 6.80457 5.85371 6.46286 4.96229 6.28457L2.85257 5.88343C1.664 5.63086 0.237714 4.97714 0.237714 3.03086C0.237714 1.248 1.69371 0 4.02629 0Z" fill="white"/>
<path d="M17.3476 2.76343V12.7029H15.3864V9.59772C14.7624 10.1029 13.9453 10.4 12.935 10.4C11.0481 10.4 9.295 8.81029 9.295 6.47772C9.295 4.14514 11.0481 2.54057 12.935 2.54057C13.9453 2.54057 14.7624 2.83771 15.3864 3.35771V2.76343H17.3476ZM13.2767 8.69143C14.3316 8.69143 15.3864 7.84457 15.3864 6.47772C15.3864 5.11086 14.3316 4.24914 13.2767 4.24914C12.0881 4.24914 11.1967 5.11086 11.1967 6.47772C11.1967 7.84457 12.0881 8.69143 13.2767 8.69143Z" fill="white"/>
<path d="M26.4211 2.76343V10.1771H24.46V9.50857C23.8805 10.088 23.108 10.4 22.1274 10.4C20.3445 10.4 19.156 9.12229 19.156 7.28V2.76343H21.1171V6.864C21.1171 7.904 21.7114 8.60229 22.6177 8.60229C23.732 8.60229 24.46 7.85943 24.46 6.04686V2.76343H26.4211Z" fill="white"/>
<path d="M35.9625 2.76343V10.1771H34.0014V9.59772C33.3774 10.1029 32.5602 10.4 31.55 10.4C29.6631 10.4 27.91 8.81029 27.91 6.47772C27.91 4.14514 29.6631 2.54057 31.55 2.54057C32.5602 2.54057 33.3774 2.83771 34.0014 3.35771V2.76343H35.9625ZM31.8917 8.69143C32.9465 8.69143 34.0014 7.84457 34.0014 6.47772C34.0014 5.11086 32.9465 4.24914 31.8917 4.24914C30.7031 4.24914 29.8117 5.11086 29.8117 6.47772C29.8117 7.84457 30.7031 8.69143 31.8917 8.69143Z" fill="white"/>
<path d="M42.6572 2.65943C42.8503 2.65943 42.9989 2.65943 43.1772 2.71886L43.0732 4.60572H42.6423C40.8298 4.60572 39.9978 5.72 39.9978 7.78514V10.1771H38.0366V2.76343H39.9978V4.11543C40.592 3.25371 41.4538 2.65943 42.6572 2.65943Z" fill="white"/>
<path d="M51.3312 6.32914V6.99771H45.6855C45.8786 8.06743 46.6363 8.72114 47.5426 8.72114C48.1221 8.72114 48.8501 8.64686 49.3849 7.74057L51.1381 8.112C50.4843 9.65714 49.1621 10.4 47.5426 10.4C45.4478 10.4 43.7392 8.81029 43.7392 6.47772C43.7392 4.14514 45.4478 2.54057 47.5723 2.54057C49.5483 2.54057 51.2569 4.07086 51.3312 6.32914ZM47.5723 4.24914C46.8295 4.24914 45.9826 4.69486 45.7449 5.616H49.3255C49.0729 4.66514 48.3598 4.24914 47.5723 4.24914Z" fill="white"/>
<path d="M61.3938 0.222858V5.72C61.3938 8.51314 59.6852 10.4 57.1149 10.4C54.4852 10.4 52.7321 8.51314 52.7321 5.72V0.222858H54.7526V5.72C54.7526 7.384 55.6886 8.46857 57.1149 8.46857C58.4669 8.46857 59.3732 7.384 59.3732 5.72V0.222858H61.3938Z" fill="white"/>
<path d="M67.7963 2.54057C69.6831 2.54057 71.4363 4.14514 71.4363 6.47772C71.4363 8.81029 69.6831 10.4 67.7963 10.4C66.786 10.4 65.9688 10.1029 65.3448 9.59772V12.7029H63.3837V2.76343H65.3448V3.35771C65.9688 2.83771 66.786 2.54057 67.7963 2.54057ZM67.4546 8.69143C68.6431 8.69143 69.5346 7.84457 69.5346 6.47772C69.5346 5.11086 68.6431 4.24914 67.4546 4.24914C66.3997 4.24914 65.3448 5.11086 65.3448 6.47772C65.3448 7.84457 66.3997 8.69143 67.4546 8.69143Z" fill="white"/>
</svg>
