<svg width="24" height="22" viewBox="0 0 24 22" fill="none" xmlns="http://www.w3.org/2000/svg">
<g clip-path="url(#clip0_92_53377)">
<path d="M4.29239 20.4451C4.96705 20.4451 5.50483 19.9074 5.50483 19.2327C5.50483 18.558 4.95728 18.0203 4.29239 18.0203C3.61774 18.0203 3.07997 18.5678 3.07997 19.2327C3.07997 19.9171 3.62752 20.4451 4.29239 20.4451ZM1.22221 13.0043C1.89687 13.0043 2.43464 12.447 2.43464 11.7821C2.43464 11.0977 1.87731 10.5697 1.22221 10.5697C0.547549 10.5697 0 11.1172 0 11.7821C0 12.4568 0.557327 13.0043 1.22221 13.0043ZM4.29239 5.5635C4.96705 5.5635 5.50483 5.01595 5.50483 4.35106C5.50483 3.66663 4.95728 3.13863 4.29239 3.13863C3.61774 3.13863 3.07997 3.6764 3.07997 4.35106C3.07997 5.02572 3.62752 5.5635 4.29239 5.5635ZM11.7919 2.43464C12.4665 2.43464 13.0043 1.88709 13.0043 1.21243C13.0043 0.537772 12.4568 0 11.7919 0C11.1074 0 10.5794 0.547549 10.5794 1.21243C10.5794 1.89687 11.1172 2.43464 11.7919 2.43464ZM19.2816 5.54394C19.9562 5.54394 20.494 4.99639 20.494 4.33151C20.494 3.64707 19.9464 3.11908 19.2816 3.11908C18.5972 3.11908 18.0593 3.65685 18.0593 4.33151C18.0593 5.00617 18.6069 5.54394 19.2816 5.54394ZM22.3615 13.0043C23.0362 13.0043 23.5837 12.447 23.5837 11.7821C23.5837 11.0977 23.0264 10.5697 22.3615 10.5697C21.6771 10.5697 21.1393 11.1172 21.1393 11.7821C21.1393 12.4568 21.6966 13.0043 22.3615 13.0043ZM19.2718 20.4549C19.9464 20.4549 20.4842 19.9171 20.4842 19.2425C20.4842 18.5678 19.9366 18.03 19.2718 18.03C18.5873 18.03 18.0496 18.5776 18.0496 19.2425C18.0496 19.9269 18.5972 20.4549 19.2718 20.4549ZM11.7919 18.9002C15.7127 18.9002 18.9002 15.7225 18.9002 11.7821C18.9002 8.10569 16.1038 5.08439 12.5154 4.72262L12.5057 11.9288C12.5057 12.3198 12.1634 12.6621 11.7919 12.6523C11.3617 12.6327 11.0585 12.3296 11.0585 11.9092V4.72262C7.47991 5.08439 4.67372 8.10569 4.67372 11.7821C4.67372 15.7323 7.87102 18.9002 11.7919 18.9002Z" fill="#9EFF00"/>
</g>
<defs>
<clipPath id="clip0_92_53377">
<rect width="23.5837" height="21.99" fill="white"/>
</clipPath>
</defs>
</svg>
