<svg width="23" height="18" viewBox="0 0 23 18" fill="none" xmlns="http://www.w3.org/2000/svg">
<g clip-path="url(#clip0_92_53395)">
<path d="M2.22813 10.9621H8.292C9.71167 10.9621 10.5389 10.1535 10.5389 8.75274V2.6888C10.5389 1.28799 9.71167 0.479472 8.292 0.479472H2.22813C0.81792 0.479472 0 1.27859 0 2.6888V8.75274C0 10.1629 0.81792 10.9621 2.22813 10.9621ZM14.4499 11.0842H20.6361C22.1027 11.0842 22.9394 10.257 22.9394 8.82791V2.62299C22.9394 1.18458 22.1027 0.357254 20.6361 0.357254H14.4499C12.9927 0.357254 12.156 1.18458 12.156 2.62299V8.82791C12.156 10.257 12.9927 11.0842 14.4499 11.0842ZM14.4688 9.59879C13.9141 9.59879 13.6414 9.32618 13.6414 8.76212V2.6794C13.6414 2.11532 13.9141 1.84268 14.4688 1.84268H20.6172C21.1908 1.84268 21.454 2.11532 21.454 2.6794V8.76212C21.454 9.32618 21.1908 9.59879 20.6172 9.59879H14.4688ZM0.714506 14.4782C0.329049 14.4782 0 14.8166 0 15.2397C0 15.6627 0.329049 15.9918 0.714506 15.9918H3.75116V14.4782H0.714506ZM5.387 17.496C6.62798 17.496 7.64333 16.4807 7.64333 15.2397C7.64333 13.9893 6.62798 12.9739 5.387 12.9739C4.14602 12.9739 3.13066 13.9893 3.13066 15.2397C3.13066 16.4807 4.14602 17.496 5.387 17.496ZM5.387 16.3396C4.76651 16.3396 4.28704 15.8507 4.28704 15.2303C4.28704 14.6097 4.76651 14.1303 5.387 14.1303C5.99809 14.1303 6.48696 14.6097 6.48696 15.2303C6.48696 15.8507 5.99809 16.3396 5.387 16.3396ZM6.88182 14.4782V15.9918H22.1779C22.601 15.9918 22.9394 15.6627 22.9394 15.2397C22.9394 14.8166 22.601 14.4782 22.1779 14.4782H6.88182Z" fill="#9EFF00"/>
</g>
<defs>
<clipPath id="clip0_92_53395">
<rect width="22.9394" height="17.496" fill="white"/>
</clipPath>
</defs>
</svg>
