<svg width="20" height="22" viewBox="0 0 20 22" fill="none" xmlns="http://www.w3.org/2000/svg">
<path d="M0 11.8186V13.2402C0 15.1053 0.941628 16.0469 2.843 16.0469H5.13368V14.5892H2.8611C1.95569 14.5892 1.45771 14.1003 1.45771 13.1587V11.8186H0ZM1.45771 10.5783V6.46766H0V10.5783H1.45771ZM1.45771 5.2363V4.15886C1.45771 3.21723 1.95569 2.72831 2.8611 2.72831H4.17395V1.2706H2.843C0.941628 1.2706 0 2.21223 0 4.07737V5.2363H1.45771ZM9.51587 1.2706H5.40531V2.72831H9.51587V1.2706ZM10.7473 2.72831H11.9062C12.8025 2.72831 13.3096 3.21723 13.3096 4.15886V6.14172H14.7673V4.07737C14.7673 2.21223 13.8166 1.2706 11.9333 1.2706H10.7473V2.72831ZM19.1585 15.2773V8.26945C19.1585 6.40428 18.2078 5.46266 16.3246 5.46266H7.23424C5.33287 5.46266 4.39124 6.39523 4.39124 8.26945V17.4322C4.39124 19.2973 5.33287 20.239 7.23424 20.239H11.7975V18.7813H7.25235C6.35599 18.7813 5.84896 18.2923 5.84896 17.3507V8.35096C5.84896 7.40929 6.35599 6.92037 7.25235 6.92037H16.2975C17.1938 6.92037 17.7008 7.40929 17.7008 8.35096V13.8106L19.1585 15.2773ZM12.6124 18.6002C12.6033 18.9533 13.0199 19.0619 13.2462 18.8447L14.6315 17.4594L16.1797 21.2802C16.2522 21.4522 16.4332 21.5338 16.5962 21.4703L17.5016 21.1082C17.6556 21.0357 17.728 20.8456 17.6374 20.6736L16.0168 16.9071L17.9724 16.8346C18.3074 16.8165 18.4795 16.4815 18.235 16.228L13.2824 11.1396C13.056 10.9042 12.7029 11.04 12.6939 11.375L12.6124 18.6002Z" fill="#9EFF00"/>
</svg>
