<svg width="23" height="24" viewBox="0 0 23 24" fill="none" xmlns="http://www.w3.org/2000/svg">
<path d="M0 11.5261C0 15.7614 2.44382 19.4989 5.78335 21.3346C6.94444 21.987 7.90649 20.4389 6.62375 19.698C3.84819 18.1499 1.89093 15.0757 1.89093 11.5261C1.89093 6.30674 6.04874 2.12681 11.2681 2.12681C16.4876 2.12681 20.6785 6.30674 20.6785 11.5261C20.6785 12.1896 21.1872 12.5103 21.6738 12.5103C22.1271 12.5103 22.5583 12.1785 22.5583 11.5261C22.5583 5.35576 17.4385 0.246948 11.2681 0.246948C5.1088 0.246948 0 5.35576 0 11.5261ZM4.46745 11.5261C4.46745 13.9921 5.81652 16.0599 7.43099 17.0994C8.54785 17.8513 9.50988 16.3585 8.56997 15.7171C7.19878 14.8214 6.29202 13.2844 6.29202 11.5261C6.29202 8.73951 8.50362 6.52791 11.2681 6.52791C14.0326 6.52791 16.1668 8.72845 16.2664 11.5261C16.2885 12.0348 16.6755 12.4329 17.1841 12.4329C17.6928 12.4329 18.091 12.0348 18.091 11.5261C18.091 7.78852 15.0057 4.70333 11.2681 4.70333C7.55263 4.70333 4.46745 7.78852 4.46745 11.5261ZM10.8479 19.5322C10.8369 19.9634 11.3455 20.1072 11.622 19.8307L13.3139 18.1388L15.2048 22.8053C15.2932 23.0154 15.5144 23.115 15.7134 23.0375L16.8082 22.5952C17.0072 22.5067 17.0847 22.2745 16.9851 22.0645L15.0057 17.4643L17.3832 17.3758C17.8034 17.3537 18.0024 16.9446 17.7039 16.635L11.6662 10.4203C11.3787 10.1328 10.9585 10.2987 10.9475 10.7078L10.8479 19.5322Z" fill="#9EFF00"/>
</svg>
