<svg width="21" height="20" viewBox="0 0 21 20" fill="none" xmlns="http://www.w3.org/2000/svg">
<path d="M1.04464 11.5011C1.62723 11.5011 2.08929 11.0391 2.08929 10.4665C2.08929 9.88389 1.62723 9.42189 1.04464 9.42189C0.462053 9.42189 0 9.88389 0 10.4665C0 11.0391 0.462053 11.5011 1.04464 11.5011ZM3.41518 4.45982C3.99777 4.45982 4.45982 3.98772 4.45982 3.41518C4.45982 2.83259 3.99777 2.37053 3.41518 2.37053C2.84264 2.37053 2.37053 2.83259 2.37053 3.41518C2.37053 3.98772 2.84264 4.45982 3.41518 4.45982ZM10.4766 2.08929C11.0491 2.08929 11.5112 1.62723 11.5112 1.04464C11.5112 0.472098 11.0491 0 10.4766 0C9.894 0 9.43191 0.472098 9.43191 1.04464C9.43191 1.62723 9.894 2.08929 10.4766 2.08929ZM17.5279 4.45982C18.1105 4.45982 18.5726 3.98772 18.5726 3.41518C18.5726 2.83259 18.1105 2.37053 17.5279 2.37053C16.9453 2.37053 16.4833 2.83259 16.4833 3.41518C16.4833 3.98772 16.9453 4.45982 17.5279 4.45982ZM19.9085 11.5011C20.481 11.5011 20.9431 11.0391 20.9431 10.4665C20.9431 9.88389 20.481 9.42189 19.9085 9.42189C19.3259 9.42189 18.8638 9.88389 18.8638 10.4665C18.8638 11.0391 19.3259 11.5011 19.9085 11.5011ZM18.1909 18.894C18.6328 18.894 19.0145 18.5324 19.0145 18.0904C19.0145 17.6384 18.6328 17.2667 18.1909 17.2667H16.9654V10.6071C16.9654 6.94085 14.1328 4.10826 10.4766 4.10826C6.81027 4.10826 3.99777 6.94085 3.99777 10.6071V17.2667H2.75223C2.31027 17.2667 1.95871 17.6384 1.95871 18.0904C1.95871 18.5324 2.31027 18.894 2.75223 18.894H18.1909ZM11.3203 10.6373V17.2667H9.64286V10.6373C9.64286 10.1752 10.0145 9.79354 10.4766 9.79354C10.9386 9.79354 11.3203 10.1752 11.3203 10.6373Z" fill="#9EFF00"/>
</svg>
